# AST/ASF file generated using VICON BodyLanguage
# -----------------------------------------------
:version 1.10
:name VICON
:units
  mass 1.0
  length 0.45
  angle deg
:documentation
   .ast/.asf automatically generated from VICON data using
   VICON BodyBuilder and BodyLanguage model FoxedUp or BRILLIANT.MOD
:root
   order TX TY TZ RX RY RZ
   axis XYZ
   position 0 0 0  
   orientation 0 0 0 
:bonedata
  begin
     id 1 
     name lhipjoint
     direction 0.631061 -0.684803 0.364427 
     length 2.59943 
     axis 0 0 0  XYZ
  end
  begin
     id 2 
     name lfemur
     direction 0.34202 -0.939693 0  
     length 6.69088  
     axis 0 0 20  XYZ
    dof rx ry rz
    limits (-160.0 20.0)
           (-70.0 70.0)
           (-60.0 70.0)
  end
  begin
     id 3 
     name ltibia
     direction 0.34202 -0.939693 0   
     length 7.83506   
     axis 0 0 20   XYZ
    dof rx
    limits (-10.0 170.0)
  end
  begin
     id 4 
     name lfoot
     direction 0.176279 -0.484322 0.856947   
     length 2.95235   
     axis -90 7.62852e-016 20   XYZ
    dof rx rz
    limits (-45.0 90.0)
           (-70.0 20.0)
  end
  begin
     id 5 
     name ltoes
     direction 1.53551e-011 -4.21828e-011 1   
     length 1.41888   
     axis -90 7.62852e-016 20   XYZ
    dof rx
    limits (-90.0 20.0)
  end
  begin
     id 6 
     name rhipjoint
     direction -0.641155 -0.677457 0.360518   
     length 2.62761  
     axis 0 0 0  XYZ 
  end
  begin
     id 7 
     name rfemur
     direction -0.34202 -0.939693 0   
     length 6.52283   
     axis 0 0 -20   XYZ
    dof rx ry rz
    limits (-160.0 20.0)
           (-70.0 70.0)
           (-70.0 60.0)
  end
  begin
     id 8 
     name rtibia
     direction -0.34202 -0.939693 0   
     length 7.74138   
     axis 0 0 -20   XYZ
    dof rx
    limits (-10.0 170.0)
 end
 begin
     id 9 
     name rfoot
     direction -0.186474 -0.512334 0.838297   
     length 2.72941  
     axis -90 -7.62852e-016 -20   XYZ
    dof rx rz
    limits (-45.0 90.0)
           (-20.0 70.0)
  end
  begin
     id 10 
     name rtoes
     direction -1.53683e-011 -4.22007e-011 1   
     length 1.30521   
     axis -90 -7.62852e-016 -20   XYZ
    dof rx
    limits (-90.0 20.0)
  end
  begin
     id 11 
     name lowerback
     direction -0.0121201 0.985605 -0.168631   
     length 2.60975   
     axis 0 0 0   XYZ
    dof rx ry rz
    limits (-20.0 45.0)
           (-30.0 30.0)
           (-30.0 30.0)
  end
  begin
     id 12 
     name upperback
     direction -0.019495 0.999568 -0.0220039   
     length 2.65091   
     axis 0 0 0   XYZ
    dof rx ry rz
    limits (-20.0 45.0)
           (-30.0 30.0)
           (-30.0 30.0)
  end
  begin
     id 13 
     name thorax
     direction -0.0125765 0.998661 0.0501718   
     length 2.70267   
     axis 0 0 0   XYZ
    dof rx ry rz
    limits (-20.0 45.0)
           (-30.0 30.0)
           (-30.0 30.0)
  end
  begin
     id 14 
     name lowerneck
     direction -0.0309438 0.997491 -0.0636732   
     length 1.56498   
     axis 0 0 0   XYZ
    dof rx ry rz
    limits (-20.0 45.0)
           (-30.0 30.0)
           (-30.0 30.0)
  end
  begin
     id 15 
     name upperneck
     direction -0.00130017 0.992397 -0.123074   
     length 1.5414   
     axis 0 0 0   XYZ
    dof rx ry rz
    limits (-20.0 45.0)
           (-30.0 30.0)
           (-30.0 30.0)
  end
  begin
     id 16
     name head
     direction 0.00242507 0.999315 -0.0369171  
     length 1.60129  
     axis 0 0 0   XYZ
    dof rx ry rz
    limits (-20.0 45.0)
           (-30.0 30.0)
           (-30.0 30.0)
  end
  begin
     id 17 
     name lclavicle
     direction 0.996744 0.0363396 -0.0719802  
     length 4.63989  
     axis 0 0 0   XYZ
    dof ry rz
    limits (-20.0 10.0)
           (0.0 20.0)
  end
  begin
     id 18 
     name lhumerus
     direction 1 -4.49035e-011 -2.38432e-027   
     length 4.58161   
     axis 180 -30 -90   XYZ
    dof rx ry rz
    limits (-60.0 90.0)
           (-90.0 90.0)
           (-90.0 90.0)
  end
  begin
     id 19
     name lradius
     direction 1 0.000357117 -0.000206182   
     length 3.43782   
     axis 180 -30 -90   XYZ
    dof rx
    limits (-10.0 170.0)
  end
  begin
     id 20
     name lwrist
     direction 1 -7.34592e-005 -0.000404398   
     length 1.71891   
     axis 7.40711e-015 90 90   XYZ
    dof ry
    limits (-180.0 0.0)
 end
  begin
     id 21 
     name lhand
     direction 1 -4.48735e-011 -2.22254e-026   
     length 1.04662   
     axis 1.41817e-014 90 90   XYZ
    dof rx rz
    limits (-90.0 90.0)
           (-45.0 45.0)
  end
  begin
     id 22 
     name lfingers
     direction 1 -4.49414e-011 -4.44507e-026   
     length 0.843814   
     axis 2.83634e-014 90 90   XYZ
    dof rx
    limits (0.0 90.0)
  end
  begin
     id 23
     name lthumb
     direction 0.707107 -6.3482e-011 0.707107   
     length 1.21155   
     axis -90 45 2.85299e-015   XYZ
    dof rx rz
    limits (-45.0 45.0)
           (-45.0 45.0)
  end
  begin
     id 24 
     name rclavicle
     direction -0.997328 0.0105626 0.0722925   
     length 4.0272  
     axis 0 0 0   XYZ 
    dof ry rz
    limits (-10.0 20.0)
           (-20.0 0.0)
  end
  begin
     id 25 
     name rhumerus
     direction -1 -4.48913e-011 -1.83378e-027  
     length 4.53415   
     axis 180 30 90   XYZ
    dof rx ry rz
    limits (-90.0 60.0)
           (-90.0 90.0)
           (-90.0 90.0)
  end
  begin
     id 26 
     name rradius
     direction -0.999999 0.00120542 -0.000695951   
     length 3.33298   
     axis 180 30 90   XYZ
    dof rx
    limits (-10.0 170.0)
  end
  begin
     id 27 
     name rwrist
     direction -0.999999 0.000362235 -0.0013361   
     length 1.66649   
     axis 7.40711e-015 -90 -90   XYZ
    dof ry
    limits (-180.0 0.0)
  end
  begin
     id 28
     name rhand
     direction -1 -4.49379e-011 -2.22254e-026   
     length 1.21477   
     axis 1.41817e-014 -90 -90   XYZ
    dof rx rz
    limits (-90.0 90.0)
           (-45.0 45.0)
  end
  begin
     id 29
     name rfingers
     direction -1 -4.48656e-011 -4.44507e-026   
     length 0.979378   
     axis 2.83634e-014 -90 -90   XYZ
    dof rx
    limits (0.0 90.0)
  end
  begin
     id 30
     name rthumb
     direction -0.707107 -6.35052e-011 0.707107   
     length 1.4062   
     axis -90 -45 -2.85299e-015   XYZ
    dof rx rz
    limits (-45.0 45.0)
           (-45.0 45.0)
  end
:hierarchy
  begin
    root lhipjoint rhipjoint lowerback
    lhipjoint lfemur
    lfemur ltibia
    ltibia lfoot
    lfoot ltoes
    rhipjoint rfemur
    rfemur rtibia
    rtibia rfoot
    rfoot rtoes
    lowerback upperback
    upperback thorax
    thorax lowerneck lclavicle rclavicle
    lowerneck upperneck
    upperneck head
    lclavicle lhumerus
    lhumerus lradius
    lradius lwrist
    lwrist lhand lthumb
    lhand lfingers
    rclavicle rhumerus
    rhumerus rradius
    rradius rwrist
    rwrist rhand rthumb
    rhand rfingers
  end

#!OML:ASF X:\für Bonn\!DataBase\2005_08_12_Daniel\c3d\Daniel.ASF
:FULLY-SPECIFIED
:DEGREES
110
root 1.03813 17.5438 0.0903769 -0.686193 -86.3253 -3.7761
lowerback 4.49584 -1.82031 0.727279
upperback -0.194487 -2.4397 -1.5561
thorax -2.81813 -1.24119 -1.83964
lowerneck -0.29339 0.674582 -3.61621
upperneck 9.01083 0.859711 0.424457
head 2.90369 0.268136 0.779061
rclavicle -4.61677e-014 -8.74653e-015
rhumerus -14.8684 26.6332 -10.8279
rradius 22.6587
rwrist -35.1812
rhand -20.3625 -3.81577
rfingers 7.12502
rthumb 5.98987 -33.7111
lclavicle -4.61677e-014 -8.74653e-015
lhumerus -20.8136 21.1985 -3.41601
lradius 17.8836
lwrist -1.73688
lhand -27.1738 12.9566
lfingers 7.12502
lthumb -0.587988 42.9356
rfemur 2.38693 20.671 20.6602
rtibia 24.7701
rfoot -28.3076 -22.4839
rtoes -14.5963
lfemur -0.95553 -10.7239 -17.9521
ltibia 31.795
lfoot -26.285 12.6795
ltoes -18.068
111
root 1.03827 17.5437 0.0891814 -0.440434 -86.3274 -4.03253
lowerback 4.49708 -1.81157 0.739778
upperback -0.167389 -2.42746 -1.56314
thorax -2.79126 -1.23509 -1.85522
lowerneck -0.304487 0.670898 -3.57807
upperneck 8.97081 0.855502 0.419506
head 2.89224 0.268255 0.770575
rclavicle -2.45996e-014 -5.1684e-015
rhumerus -14.8157 26.3095 -10.8198
rradius 22.5566
rwrist -34.8571
rhand -20.269 -3.84676
rfingers 7.12502
rthumb 6.08015 -33.7395
lclavicle -2.45996e-014 -5.1684e-015
lhumerus -20.8036 21.2992 -3.42111
lradius 17.8979
lwrist -1.70257
lhand -27.2275 12.7852
lfingers 7.12502
lthumb -0.639842 42.764
rfemur 2.37949 20.6107 20.6663
rtibia 24.7757
rfoot -28.2536 -22.4408
rtoes -14.663
lfemur -0.946154 -10.7074 -17.9259
ltibia 31.7947
lfoot -26.2839 12.6616
ltoes -18.0699
112
root 1.03872 17.5436 0.0891228 -0.449326 -86.3335 -4.03458
lowerback 4.53862 -1.8199 0.736986
upperback -0.183092 -2.43912 -1.5696
thorax -2.8314 -1.24121 -1.85785
lowerneck -0.216594 0.701099 -3.57401
upperneck 8.91062 0.890333 0.440588
head 2.85471 0.287235 0.776431
rclavicle 2.83517e-014 -7.95139e-016
rhumerus -14.793 26.4997 -10.841
rradius 22.5459
rwrist -35.0111
rhand -20.3096 -3.77573
rfingers 7.12502
rthumb 6.04094 -33.6696
lclavicle 2.83517e-014 -7.95139e-016
lhumerus -20.8259 20.8227 -3.38502
lradius 17.9512
lwrist -1.21273
lhand -27.2706 12.8098
lfingers 7.12502
lthumb -0.68146 42.7885
rfemur 2.38473 20.5826 20.6605
rtibia 24.776
rfoot -28.2363 -22.4117
rtoes -14.67
lfemur -0.941564 -10.7006 -17.9262
ltibia 31.7979
lfoot -26.2792 12.6627
ltoes -18.0768
113
root 1.03967 17.5436 0.0885176 -0.442647 -86.3334 -4.04821
lowerback 4.54438 -1.81475 0.731306
upperback -0.153606 -2.43255 -1.57387
thorax -2.80393 -1.23764 -1.85988
lowerneck -0.265497 0.677749 -3.57258
upperneck 8.90059 0.861787 0.443756
head 2.86102 0.273801 0.77685
rclavicle -1.42628e-014 -6.75868e-015
rhumerus -14.7899 26.6136 -10.8297
rradius 22.5623
rwrist -35.1327
rhand -20.3196 -3.74797
rfingers 7.12502
rthumb 6.03122 -33.6421
lclavicle -1.42628e-014 -6.75868e-015
lhumerus -20.8216 21.0497 -3.42072
lradius 17.9401
lwrist -1.36095
lhand -27.2752 12.7674
lfingers 7.12502
lthumb -0.685923 42.746
rfemur 2.39418 20.6206 20.6711
rtibia 24.7754
rfoot -28.269 -22.4205
rtoes -14.5998
lfemur -0.940177 -10.7001 -17.9231
ltibia 31.7996
lfoot -26.2756 12.6605
ltoes -18.0768
114
root 1.04056 17.5436 0.0873988 -0.424415 -86.3172 -4.0767
lowerback 4.58111 -1.82221 0.727521
upperback -0.161787 -2.44341 -1.58979
thorax -2.83397 -1.24337 -1.87203
lowerneck -0.214799 0.673875 -3.50477
upperneck 8.87758 0.856171 0.390048
head 2.844 0.271712 0.747056
rclavicle -4.17448e-015 -1.07344e-014
rhumerus -14.7877 26.6053 -10.8667
rradius 22.5412
rwrist -35.1674
rhand -20.2967 -3.74233
rfingers 7.12502
rthumb 6.05335 -33.6358
lclavicle -4.17448e-015 -1.07344e-014
lhumerus -20.8106 20.8238 -3.40556
lradius 17.955
lwrist -1.15757
lhand -27.418 12.8974
lfingers 7.12502
lthumb -0.823793 42.8756
rfemur 2.40478 20.5913 20.678
rtibia 24.7721
rfoot -28.2608 -22.4119
rtoes -14.6007
lfemur -0.943034 -10.6544 -17.9039
ltibia 31.8026
lfoot -26.2533 12.6216
ltoes -18.1404
